<?xml version="1.0" encoding="utf-8"?>
<!-- Generator: Adobe Illustrator 23.0.0, SVG Export Plug-In . SVG Version: 6.00 Build 0)  -->
<svg version="1.1" id="图层_1" xmlns="http://www.w3.org/2000/svg" xmlns:xlink="http://www.w3.org/1999/xlink" x="0px" y="0px"
	 viewBox="0 0 576 576" style="enable-background:new 0 0 576 576;" xml:space="preserve">
<style type="text/css">
	.st0{fill:#DDA0C2;}
	.st1{fill:#DDA0C2;stroke:#7E318E;stroke-miterlimit:10;}
	.st2{fill:none;stroke:#000000;stroke-miterlimit:10;}
	.st3{fill:#FFFFFF;stroke:#000000;stroke-miterlimit:10;}
	.st4{stroke:#000000;stroke-miterlimit:10;}
	.st5{stroke:#000000;stroke-width:0.9527;stroke-miterlimit:10;}
	.st6{fill:#CF79A6;}
	.st7{fill:#D94353;}
	.st8{fill:none;stroke:#000000;stroke-width:0.9527;stroke-miterlimit:10;}
	.st9{fill:#060403;stroke:#000000;stroke-miterlimit:10;}
</style>
<path class="st0" d="M363.8,139.79c0,0-0.05,0.06-0.14,0.19c-2.42,3.34-35.02,50.23,30.37,65.59c0,0,2.38-0.11,5.37-2.12
	c5.03-3.37,11.79-12.1,11.79-34.66C411.2,132.84,365.84,135.7,363.8,139.79z"/>
<path class="st1" d="M348.56,237.81c22.77,46.22-1.7,74.77-1.7,74.77s-76.81,84.63-156.68-7.14s72.63-169.19,173.62-165.65
	c0,0-40.09,50.18,30.23,65.78c0,0,3.58,14.63-38.42,29.6L348.56,237.81z"/>
<path class="st1" d="M269.62,155.25c15.4-51.87-20.47-46.41-20.47-46.41s-24.37,13.45,5.07,52.45"/>
<path class="st1" d="M232.37,172.21c-7.8-43.68-38.22-36.27-38.22-36.27s-20.28,30.61,15.79,49.72"/>
<path class="st2" d="M260.66,279.92c0,0,54.8,45.83,71.71-13.85"/>
<ellipse class="st3" cx="268.09" cy="191.2" rx="16.4" ry="14.97"/>
<ellipse class="st3" cx="312.4" cy="171.03" rx="14.26" ry="14.16"/>
<ellipse class="st4" cx="263.13" cy="191.23" rx="5.69" ry="5.04"/>
<ellipse class="st5" cx="307.25" cy="173.34" rx="5.16" ry="5.04"/>
<path class="st6" d="M206.28,229.56c0,0-21.93,23.55,3.25,45.64c25.18,22.09,38.5-16.41,38.5-16.41S250.14,219.49,206.28,229.56z"/>
<path class="st7" d="M205.28,319.78c-29.96,26.86-44.09,144.66-44.09,144.66l217.67,1.03c0,0-8.39-67.79-26.54-113.72
	c-4.81-12.17-10.31-22.81-16.51-30.25c0,0-35.73,29.49-126.24,0.93L205.28,319.78z"/>
<path class="st8" d="M421.91,383.63c0,0-9.85-5.47-22.36-11.88c-16.64-8.53-38-18.73-47.22-20"/>
<path class="st8" d="M407.34,388.26c0,0-7.15-9.36-7.8-16.51c-0.82-9.06,25.5-9.63,25.5-9.63"/>
<path class="st8" d="M115.6,385.05c0,0,49.5-32.6,70.44-32.9"/>
<path class="st8" d="M131.45,389.24c0,0,5.08-9.87,4.64-16.9c-0.38-6.02-22.73-9.87-22.73-9.87"/>
<path class="st8" d="M166.12,430.79c0,0-49.91,0.93-25.11-23.25c0,0,14.29-6,13.48,11.93c-0.8,17.93-33.79,20.23-36.89,1.03"/>
<path class="st9" d="M213.54,464.32l-0.23,50.23c0,0,42.93-15.28,48.95-1.5s-48.84,2.89-48.84,2.89"/>
<path class="st9" d="M307.86,465.13l0.58,50.34c0,0,41.74-19.67,46.15-1.16c0,0-27.3,10.64-46.25,3.19"/>
<path class="st6" d="M368.29,167.35c0,0-5.54,5.96,0.82,11.54s9.73-4.15,9.73-4.15S379.38,164.8,368.29,167.35z"/>
<path class="st6" d="M389.71,161.11c0,0-5.54,5.96,0.82,11.54c6.37,5.59,9.73-4.15,9.73-4.15S400.8,158.57,389.71,161.11z"/>
</svg>
