<?xml version="1.0" encoding="utf-8"?>
<!-- Generator: Adobe Illustrator 23.0.0, SVG Export Plug-In . SVG Version: 6.00 Build 0)  -->
<svg version="1.1" id="图层_1" xmlns="http://www.w3.org/2000/svg" xmlns:xlink="http://www.w3.org/1999/xlink" x="0px" y="0px"
	 viewBox="0 0 576 576" style="enable-background:new 0 0 576 576;" xml:space="preserve">
<style type="text/css">
	.st0{fill:#7996C3;}
	.st1{fill:#E5A8C5;}
	.st2{fill:none;stroke:#000000;stroke-width:1.7105;stroke-miterlimit:10;}
	.st3{fill:none;stroke:#040000;stroke-width:1.2054;stroke-miterlimit:10;}
	.st4{fill:#080404;stroke:#040000;stroke-width:1.2054;stroke-miterlimit:10;}
	.st5{fill:#FFFFFF;stroke:#040000;stroke-width:0.9392;stroke-miterlimit:10;}
	.st6{fill:#040000;stroke:#040000;stroke-width:0.9392;stroke-miterlimit:10;}
	.st7{fill:#040000;stroke:#040000;stroke-width:0.8947;stroke-miterlimit:10;}
	.st8{fill:#C5759F;}
</style>
<path class="st0" d="M223.52,359.59c0,0-25.2,102.12,73.24,86.37c98.45-15.75,53.55-82.69,50.14-89.26"/>
<path class="st1" d="M204.31,233.91c0,0,119.47,4.93,147.18,60.35s-40.03,89.29-52.96,88.06c-12.93-1.23-88.06,18.47-76.36-60.35
	c0,0-34.49-9.85-44.34-23.4C167.98,285.03,160.59,240.69,204.31,233.91z"/>
<path class="st1" d="M282.9,246.58c0,0,0.08-20.78,12.33-21.77c12.26-0.99,8.75,24.05,6.01,28.7"/>
<path class="st1" d="M314.11,259.29c0,0,13.4-23.6,22.91-23.6c9.52,0,4.34,20.93-4.11,34.71"/>
<path class="st2" d="M233.85,332.05c0,0,8.77,38.07,38.27,10.96"/>
<path class="st3" d="M219.47,374.01c-7.28,1-24.14,9.06-37.28,15.79c-9.88,5.06-17.65,9.38-17.65,9.38"/>
<path class="st3" d="M162.07,382.2c0,0,20.78,0.45,20.13,7.6c-0.51,5.65-6.16,13.03-6.16,13.03"/>
<path class="st3" d="M350.51,363.18c17.27,0.25,58.09,27.13,58.09,27.13"/>
<path class="st3" d="M410.45,371.69c0,0-18.43,3.18-18.75,8.14c-0.36,5.8,3.83,13.94,3.83,13.94"/>
<path class="st3" d="M390.25,419.1c-6.37,13.18-28.27,4.62-24.84-8.46c3.43-13.09,11.81-5.77,11.81-5.77
	c11.48,22.61-22.22,11.5-22.22,11.5"/>
<path class="st4" d="M330.88,484.43c0,0-50.8,10.08-45.23-2.68c5.57-12.76,45.33,1.39,45.33,1.39l-0.21-46.51"/>
<path class="st4" d="M242.98,485.88c-17.55,6.9-42.83-2.95-42.83-2.95c4.08-17.14,42.74,1.07,42.74,1.07l0.54-46.62"/>
<ellipse class="st5" cx="293.89" cy="282.34" rx="15.4" ry="14.06"/>
<ellipse class="st5" cx="252.27" cy="263.4" rx="13.39" ry="13.3"/>
<ellipse class="st6" cx="289.58" cy="278.9" rx="5.34" ry="4.73"/>
<ellipse class="st7" cx="258.84" cy="262.97" rx="4.85" ry="4.73"/>
<path class="st8" d="M304.75,311.25c0,0-15.79,16.96,2.34,32.87s27.72-11.82,27.72-11.82S336.33,303.99,304.75,311.25z"/>
<path class="st8" d="M200.3,258.01c0,0-6.28-5.83-12.15,0.86c-5.88,6.7,4.37,10.24,4.37,10.24S202.98,269.69,200.3,258.01z"/>
<path class="st8" d="M206.87,280.56c0,0-6.28-5.83-12.15,0.86c-5.89,6.71,4.37,10.24,4.37,10.24S209.54,292.24,206.87,280.56z"/>
</svg>
