<?xml version="1.0" encoding="utf-8"?>
<!-- Generator: Adobe Illustrator 23.0.0, SVG Export Plug-In . SVG Version: 6.00 Build 0)  -->
<svg version="1.1" id="图层_1" xmlns="http://www.w3.org/2000/svg" xmlns:xlink="http://www.w3.org/1999/xlink" x="0px" y="0px"
	 viewBox="0 0 432 432" style="enable-background:new 0 0 432 432;" xml:space="preserve">
<style type="text/css">
	.st0{opacity:0.7;fill:#606060;}
	.st1{fill:none;stroke:#FFFFFF;stroke-miterlimit:10;}
	.st2{fill:none;stroke:#FFFFFF;stroke-width:0.8777;stroke-miterlimit:10;}
	.st3{fill:none;stroke:#FFFFFF;stroke-width:0.6841;stroke-miterlimit:10;}
	.st4{fill:none;stroke:#FFFFFF;stroke-width:0.9099;stroke-miterlimit:10;}
</style>
<path class="st0" d="M92.46,233.69h273c0,0-2-84-71-67c0,0-53-99-123-6C171.46,160.69,83.46,145.69,92.46,233.69z"/>
<line class="st1" x1="216.25" y1="372.38" x2="263.17" y2="283.98"/>
<line class="st1" x1="137.27" y1="366.33" x2="184.19" y2="277.93"/>
<line class="st1" x1="281.55" y1="354.38" x2="328.46" y2="265.97"/>
<line class="st1" x1="202.57" y1="348.33" x2="249.48" y2="259.92"/>
<line class="st2" x1="174.58" y1="327.87" x2="210.72" y2="259.78"/>
<line class="st2" x1="99.02" y1="315.39" x2="135.15" y2="247.3"/>
<line class="st3" x1="276.21" y1="349.35" x2="298.17" y2="307.98"/>
<line class="st3" x1="205.13" y1="328.41" x2="227.09" y2="287.04"/>
<line class="st4" x1="317.85" y1="341.23" x2="356.7" y2="268.04"/>
<line class="st4" x1="241.43" y1="330.37" x2="280.27" y2="257.18"/>
</svg>
